Coordinates
version=1
nRows=19
nColumns=24
inDegrees=yes

Units are S.I. units (second, meters, Newtons, ...)
Angles are in degrees.

endheader
time	pelvis_tilt	pelvis_list	pelvis_rotation	pelvis_tx	pelvis_ty	pelvis_tz	hip_flexion_r	hip_adduction_r	hip_rotation_r	knee_angle_r	ankle_angle_r	subtalar_angle_r	mtp_angle_r	hip_flexion_l	hip_adduction_l	hip_rotation_l	knee_angle_l	ankle_angle_l	subtalar_angle_l	mtp_angle_l	lumbar_extension	lumbar_bending	lumbar_rotation
      1.45900000	     -0.68323160	      4.37580782	     -1.72969499	      0.34881597	      1.02784499	      0.26177144	     14.47757613	     -7.13659814	     -8.08685393	    -69.27174019	     -3.49506523	     -3.57008925	      3.54587851	      7.82484587	      9.90883525	      4.20480967	    -10.14501427	      3.19613635	    -13.59500076	      2.32694210	     -2.35679228	     -7.09388935	      2.93994776
      1.46316667	     -0.70577189	      4.22855865	     -1.67727617	      0.35362953	      1.02855552	      0.26150959	     15.20280375	     -7.04329221	     -8.12470227	    -69.27622899	     -3.08732699	     -3.63179261	      3.20859254	      7.37396490	      9.77519137	      4.39402792	     -9.82230008	      3.24754106	    -13.66756416	      2.28010529	     -2.44607074	     -6.88523484	      2.53864189
      1.46733333	     -0.70543440	      4.07283142	     -1.65323538	      0.35841869	      1.02929154	      0.26133478	     15.89427161	     -6.91471867	     -8.12638184	    -69.20953824	     -2.73266252	     -3.80924299	      3.16155255	      6.91472805	      9.61878348	      4.47072580	     -9.52340437	      3.34001064	    -13.61401238	      2.27337447	     -2.53906243	     -6.70915599	      2.51739550
      1.47150000	     -0.68343375	      3.89422922	     -1.58647087	      0.36318514	      1.03004461	      0.26106832	     16.53315089	     -6.77715676	     -8.18133098	    -69.07364945	     -2.40255587	     -3.88872376	      2.88686900	      6.42309863	      9.45117941	      4.67844092	     -9.21354303	      3.41701670	    -13.66132899	      2.21975113	     -2.69141433	     -6.47940798	      2.26172760
      1.47566667	     -0.68121858	      3.74086776	     -1.51721567	      0.36793851	      1.03070413	      0.26077213	     17.19009509	     -6.66909002	     -8.23476375	    -68.90546434	     -2.04528207	     -4.01091489	      2.35029071	      5.96122225	      9.31091527	      4.86017832	     -8.90957325	      3.46141894	    -13.74148814	      2.09693949	     -2.79633984	     -6.25969137	      2.00871620
      1.47983333	     -0.68825175	      3.57789511	     -1.46107427	      0.37265905	      1.03132640	      0.26053760	     17.84690078	     -6.53006132	     -8.26079014	    -68.67649166	     -1.71778530	     -4.11824095	      2.31607706	      5.53270475	      9.14836563	      4.96066702	     -8.64821618	      3.56461966	    -13.67368655	      2.08905120	     -2.88043422	     -6.08393997	      1.99836275
      1.48400000	     -0.64329510	      3.39702838	     -1.36313764	      0.37735470	      1.03201548	      0.26021082	     18.41359609	     -6.38866856	     -8.33844797	    -68.37230843	     -1.37874302	     -4.17548709	      1.99807741	      5.04073420	      8.97845304	      5.17132647	     -8.37326599	      3.62376876	    -13.73192602	      1.99379795	     -3.07831076	     -5.85611872	      1.70918817
      1.48816667	     -0.64567303	      3.23110843	     -1.27916676	      0.38206272	      1.03257941	      0.25989941	     19.02712433	     -6.25712616	     -8.39612467	    -68.02742042	     -1.06823512	     -4.24524975	      1.96709024	      4.61298793	      8.81657047	      5.31151014	     -8.12105449	      3.75002686	    -13.67758158	      1.98517922	     -3.14865967	     -5.64460470	      1.67294746
      1.49233333	     -0.61766287	      3.06290306	     -1.15810353	      0.38672211	      1.03315330	      0.25952153	     19.58434241	     -6.13758964	     -8.49217362	    -67.62317981	     -0.76314329	     -4.23607864	      1.84049821	      4.15307347	      8.66003326	      5.55313713	     -7.86733360	      3.84800231	    -13.71575501	      1.93925697	     -3.32145315	     -5.41539306	      1.39149916
      1.49650000	     -0.62089737	      2.88158411	     -1.03810409	      0.39136212	      1.03366500	      0.25915896	     20.15878377	     -5.99236494	     -8.58180437	    -67.15753500	     -0.44192115	     -4.28333283	      1.78240084	      3.75147496	      8.48257878	      5.72983391	     -7.65763303	      3.94437238	    -13.70981692	      1.91629731	     -3.44186405	     -5.18041383	      1.27808074
      1.50066667	     -0.56557184	      2.72453999	     -0.91705651	      0.39601967	      1.03421483	      0.25878437	     20.65099829	     -5.88067040	     -8.67231845	    -66.63954327	     -0.13847257	     -4.28049083	      1.66983495	      3.26123704	      8.33292575	      5.96985585	     -7.39230790	      4.02622978	    -13.75967331	      1.86827784	     -3.62224503	     -4.97067099	      0.99689149
      1.50483333	     -0.56459298	      2.56218430	     -0.78296733	      0.40062815	      1.03463319	      0.25840439	     21.18960067	     -5.75737909	     -8.76475789	    -66.07200332	      0.18440453	     -4.29439638	      1.59568163	      2.86435064	      8.17362179	      6.16933921	     -7.19152175	      4.11968736	    -13.77992096	      1.83475117	     -3.75076121	     -4.76348489	      0.84151000
      1.50900000	     -0.51842320	      2.40677746	     -0.65185138	      0.40527087	      1.03510710	      0.25802430	     21.65327162	     -5.64270789	     -8.85690128	    -65.43723812	      0.47986284	     -4.30058254	      1.49166086	      2.39661171	      8.01991024	      6.40236121	     -6.94401547	      4.20267646	    -13.82043263	      1.78563202	     -3.91238987	     -4.55535066	      0.58992425
      1.51316667	     -0.51384234	      2.25746270	     -0.50941326	      0.40987268	      1.03545970	      0.25764450	     22.14907875	     -5.53033341	     -8.94899150	    -64.75675932	      0.80039126	     -4.30854388	      1.43222603	      2.00648516	      7.86933260	      6.59444547	     -6.75879786	      4.30097861	    -13.83117244	      1.75639387	     -4.03774408	     -4.36702077	      0.45044486
      1.51733333	     -0.46597374	      2.11369174	     -0.37360182	      0.41450647	      1.03585591	      0.25727540	     22.57349862	     -5.42256825	     -9.03647737	    -64.00991650	      1.07561912	     -4.31736690	      1.33046088	      1.54167071	      7.72286373	      6.83495199	     -6.51457758	      4.38197114	    -13.88012422	      1.70547632	     -4.20631831	     -4.17088510	      0.18121996
      1.52150000	     -0.47875268	      1.99350685	     -0.24102420	      0.41912957	      1.03608579	      0.25692678	     23.05621591	     -5.33267605	     -9.10821717	    -63.23092299	      1.39449937	     -4.36046155	      1.29989201	      1.17108907	      7.59674876	      6.98953948	     -6.32371525	      4.48796769	    -13.85943773	      1.69035601	     -4.27351537	     -4.00647777	      0.09823878
      1.52566667	     -0.40022535	      1.85070398	     -0.09049303	      0.42374499	      1.03647237	      0.25656426	     23.39787472	     -5.22044862	     -9.19896320	    -62.35468118	      1.63276360	     -4.37521739	      1.18724844	      0.68358435	      7.44516801	      7.24695773	     -6.09757453	      4.55704580	    -13.93366254	      1.63248997	     -4.50788458	     -3.83109307	     -0.22610747
      1.52983333	     -0.42967649	      1.74601363	      0.04087358	      0.42838419	      1.03659352	      0.25623282	     23.85896121	     -5.14005943	     -9.25764509	    -61.46566123	      1.92478756	     -4.42408363	      1.15746365	      0.33174303	      7.33083019	      7.40616478	     -5.90733945	      4.67160479	    -13.91004011	      1.61824597	     -4.55224234	     -3.67975570	     -0.29662462
      1.53400000	     -0.36444622	      1.61020478	      0.19287443	      0.43302048	      1.03688643	      0.25589638	     24.16923221	     -5.02445014	     -9.34009697	    -60.46775906	      2.10651156	     -4.49319001	      1.05791440	     -0.13661717	      7.18033521	      7.65011378	     -5.69090214	      4.75696190	    -13.97075661	      1.56798560	     -4.75785610	     -3.50955923	     -0.58590859
